<svg width="208" height="209" viewBox="0 0 208 209" fill="none" xmlns="http://www.w3.org/2000/svg">
<rect width="208" height="208" fill="white"/>
<path opacity="0.2" d="M104 8.03296C84.5751 8.02729 65.6053 13.9146 49.5966 24.9172C33.588 35.9198 21.2937 51.5201 14.3379 69.6571C7.38215 87.7941 6.09213 107.615 10.6383 126.5C15.1844 145.386 25.3528 162.448 39.8002 175.433C45.8202 163.578 55.005 153.622 66.3368 146.668C77.6686 139.713 90.7047 136.032 104 136.033C96.089 136.033 88.3554 133.687 81.7774 129.292C75.1995 124.896 70.0726 118.649 67.0451 111.34C64.0175 104.031 63.2254 95.9886 64.7688 88.2294C66.3122 80.4701 70.1219 73.3428 75.716 67.7487C81.3101 62.1546 88.4374 58.345 96.1966 56.8015C103.956 55.2581 111.999 56.0503 119.308 59.0778C126.617 62.1053 132.864 67.2322 137.259 73.8102C141.654 80.3881 144 88.1217 144 96.033C144 106.642 139.786 116.816 132.285 124.317C124.783 131.819 114.609 136.033 104 136.033C117.296 136.032 130.332 139.713 141.664 146.668C152.995 153.622 162.18 163.578 168.2 175.433C182.648 162.448 192.816 145.386 197.362 126.5C201.908 107.615 200.618 87.7941 193.663 69.6571C186.707 51.5201 174.413 35.9198 158.404 24.9172C142.395 13.9146 123.425 8.02729 104 8.03296Z" fill="black"/>
<path d="M208 104.033C208.006 86.7333 203.695 69.7053 195.46 54.4915C187.224 39.2777 175.324 26.3586 160.836 16.9042C146.348 7.44991 129.731 1.75903 112.488 0.347019C95.2464 -1.06499 77.9244 1.84648 62.0914 8.81774C46.2584 15.789 32.4145 26.5998 21.8135 40.2711C11.2126 53.9423 4.18948 70.0421 1.3803 87.1123C-1.42887 104.183 0.06463 121.684 5.72553 138.031C11.3864 154.379 21.0359 169.056 33.8 180.733L35.1 181.933C54.1126 198.749 78.6182 208.031 104 208.031C129.382 208.031 153.887 198.749 172.9 181.933L174.2 180.733C184.861 171.004 193.374 159.157 199.195 145.95C205.015 132.743 208.014 118.466 208 104.033ZM16 104.033C15.9947 89.7805 19.4514 75.7398 26.0727 63.1186C32.694 50.4974 42.2818 39.6733 54.0116 31.5771C65.7414 23.4809 79.2622 18.3549 93.4113 16.6399C107.56 14.925 121.914 16.6723 135.239 21.7318C148.563 26.7912 160.459 35.0113 169.904 45.6852C179.349 56.3591 186.06 69.1674 189.46 83.0085C192.859 96.8497 192.847 111.31 189.422 125.145C185.998 138.98 179.264 151.776 169.8 162.433C160.88 149.497 148.314 139.507 133.7 133.733C141.538 127.56 147.258 119.097 150.063 109.522C152.869 99.9472 152.621 89.736 149.354 80.3085C146.087 70.8811 139.964 62.7059 131.835 56.92C123.707 51.134 113.977 48.0248 104 48.0248C94.0226 48.0248 84.2931 51.134 76.1646 56.92C68.0362 62.7059 61.9127 70.8811 58.6459 80.3085C55.379 89.736 55.1312 99.9472 57.9367 109.522C60.7423 119.097 66.4619 127.56 74.3 133.733C59.6861 139.507 47.1199 149.497 38.2 162.433C23.8737 146.357 15.9706 125.567 16 104.033ZM72 96.0331C72 89.7041 73.8768 83.5172 77.393 78.2548C80.9092 72.9924 85.9069 68.8909 91.7541 66.4689C97.6014 64.0469 104.036 63.4132 110.243 64.6479C116.45 65.8827 122.152 68.9304 126.627 73.4056C131.103 77.8809 134.15 83.5828 135.385 89.7902C136.62 95.9976 135.986 102.432 133.564 108.279C131.142 114.126 127.041 119.124 121.778 122.64C116.516 126.156 110.329 128.033 104 128.033C95.5212 128.007 87.3972 124.627 81.4017 118.631C75.4063 112.636 72.0264 104.512 72 96.0331ZM50.1 173.533C55.8892 164.491 63.8604 157.05 73.2795 151.896C82.6987 146.742 93.2631 144.041 104 144.041C114.737 144.041 125.301 146.742 134.721 151.896C144.14 157.05 152.111 164.491 157.9 173.533C142.489 185.518 123.523 192.025 104 192.025C84.4771 192.025 65.5111 185.518 50.1 173.533Z" fill="#333333"/>
</svg>
