<svg width="41" height="22" viewBox="0 0 41 22" fill="none" xmlns="http://www.w3.org/2000/svg">
<path d="M33.92 10.61L30.92 3.61C30.8434 3.42925 30.7154 3.27503 30.5518 3.16656C30.3882 3.05809 30.1963 3.00016 30 3H27V1C27 0.734784 26.8946 0.48043 26.7071 0.292893C26.5196 0.105357 26.2652 0 26 0H7C6.73478 0 6.48043 0.105357 6.29289 0.292893C6.10536 0.48043 6 0.734784 6 1V18C6 18.2652 6.10536 18.5196 6.29289 18.7071C6.48043 18.8946 6.73478 19 7 19H9.14C9.37028 19.8474 9.873 20.5954 10.5706 21.1287C11.2682 21.6621 12.1219 21.951 13 21.951C13.8781 21.951 14.7318 21.6621 15.4294 21.1287C16.127 20.5954 16.6297 19.8474 16.86 19H23.14C23.3703 19.8474 23.873 20.5954 24.5706 21.1287C25.2682 21.6621 26.1219 21.951 27 21.951C27.8781 21.951 28.7318 21.6621 29.4294 21.1287C30.127 20.5954 30.6297 19.8474 30.86 19H33C33.2652 19 33.5196 18.8946 33.7071 18.7071C33.8946 18.5196 34 18.2652 34 18V11C33.9997 10.866 33.9725 10.7333 33.92 10.61ZM27 5H29.34L31.48 10H27V5ZM13 20C12.6044 20 12.2178 19.8827 11.8889 19.6629C11.56 19.4432 11.3036 19.1308 11.1522 18.7654C11.0009 18.3999 10.9613 17.9978 11.0384 17.6098C11.1156 17.2219 11.3061 16.8655 11.5858 16.5858C11.8655 16.3061 12.2219 16.1156 12.6098 16.0384C12.9978 15.9613 13.3999 16.0009 13.7654 16.1522C14.1308 16.3036 14.4432 16.56 14.6629 16.8889C14.8827 17.2178 15 17.6044 15 18C15 18.5304 14.7893 19.0391 14.4142 19.4142C14.0391 19.7893 13.5304 20 13 20ZM23.14 17H16.86C16.6297 16.1526 16.127 15.4046 15.4294 14.8713C14.7318 14.3379 13.8781 14.049 13 14.049C12.1219 14.049 11.2682 14.3379 10.5706 14.8713C9.873 15.4046 9.37028 16.1526 9.14 17H8V2H25V14.56C24.5446 14.8243 24.1459 15.1759 23.8268 15.5946C23.5076 16.0133 23.2742 16.4909 23.14 17ZM27 20C26.6044 20 26.2178 19.8827 25.8889 19.6629C25.56 19.4432 25.3036 19.1308 25.1522 18.7654C25.0009 18.3999 24.9613 17.9978 25.0384 17.6098C25.1156 17.2219 25.3061 16.8655 25.5858 16.5858C25.8655 16.3061 26.2219 16.1156 26.6098 16.0384C26.9978 15.9613 27.3999 16.0009 27.7654 16.1522C28.1308 16.3036 28.4432 16.56 28.6629 16.8889C28.8827 17.2178 29 17.6044 29 18C29 18.5304 28.7893 19.0391 28.4142 19.4142C28.0391 19.7893 27.5304 20 27 20ZM32 17H30.86C30.6389 16.1435 30.1401 15.3845 29.4416 14.8417C28.7432 14.2989 27.8846 14.0029 27 14V12H32V17Z" fill="#999999"/>
<line y1="13.5" x2="10" y2="13.5" stroke="#999999"/>
<line x1="4" y1="10.5" x2="14" y2="10.5" stroke="#999999"/>
<line x1="29" y1="13.5" x2="39" y2="13.5" stroke="#999999"/>
<line x1="35" y1="16.5" x2="41" y2="16.5" stroke="#999999"/>
</svg>
